# xmcd
#
# Track frame offsets:
#	150
#	19475
#	35532
#	54422
#	71775
#	86295
#	103315
#	119060
#	136840
#	157092
#
# Disc length: 2373 seconds
#
# Revision: 1
# Processed by: cddbd v1.5.1PL0 Copyright (c) Steve Scherf et al.
# Submitted via: CDex 1.50Beta5
#
DISCID=8f09430a
DTITLE=インスト - ANIMEGE HITECH SERIES 魔法のスター マジカルエミ
DYEAR=1900
DGENRE=Anime
TTITLE0=不思議色ハピネス
TTITLE1=マジカル・サンバ
TTITLE2=ダンシング・ウィズ・エミ
TTITLE3=チャレンジャー
TTITLE4=ララバイ
TTITLE5=ミラクル・ファンタジー
TTITLE6=めざせ!マジシャン
TTITLE7=マジカラットへようこそ!
TTITLE8=マジック団がやってくる
TTITLE9=あなただけDreaming
EXTD=
EXTT0=
EXTT1=
EXTT2=
EXTT3=
EXTT4=
EXTT5=
EXTT6=
EXTT7=
EXTT8=
EXTT9=
PLAYORDER=
